<svg xmlns="http://www.w3.org/2000/svg" width="48" height="48" fill="none" viewBox="0 0 48 48"><g clip-path="url(#a)"><mask id="b" width="48" height="48" x="0" y="0" maskUnits="userSpaceOnUse" style="mask-type:luminance"><path fill="#fff" d="M48 0H0v48h48z"/></mask><g mask="url(#b)"><path fill="#fff" d="M40 0H8a8 8 0 0 0-8 8v32a8 8 0 0 0 8 8h32a8 8 0 0 0 8-8V8a8 8 0 0 0-8-8"/><path fill="#000" fill-rule="evenodd" d="M44 27.1A53 53 0 0 1 29.4 33q-1.9.3-3.6 0c-1.2 0-1.7-1-1.3-2.1Q25 29.4 26 28q2.2-2.6 4.5-5.2 1.3-1.5 2.3-3.4c.6-.8.3-1.9-.6-2.3q-2.2-1-4.7-1.8l-.8.3 1.3 1q-7 1.3-13.5 3.6v.2q.8 1.4-.6 2.3l-1 .9a9 9 0 0 0 7.8-1.3l-.4-.6q1.3.3 1.5 1.5l-.1.5-.4-.5-.2-.4q-4.3 3-9.4 1.4v1.8q.1.7-.5 1-1.5.9-2.9 2c-1 1-.6 2.2.7 2.7q2.3.7 4.7.3l5.8-.8a24 24 0 0 1-7.2 2.2q-2.7.5-5.2 0-3.8-1.3-3-5 1.2-3.4 3.7-5.8a29 29 0 0 1 19.5-9 11 11 0 0 1 5.3 1c2.3 1 3.3 3.2 2.2 5.5q-1.2 2.3-2.9 4.3l-3.2 3.9-.8 1.2q-.7 1.3.8 1.3 3-.2 6-.8 4.3-1.3 8.5-2.7.4 0 .8-.3" clip-rule="evenodd"/></g></g><defs><clipPath id="a"><path fill="#fff" d="M0 0h48v48H0z"/></clipPath></defs></svg>