<svg xmlns="http://www.w3.org/2000/svg" width="48" height="48" fill="none" viewBox="0 0 48 48"><path fill="#4285f4" d="M45.1 24.5q0-2.3-.4-4.5H24v8.5h11.8q-.8 4.2-4.4 6.6v5.6h7.2q6.3-6 6.5-16.2"/><path fill="#34a853" d="M24 46q9.1-.2 14.6-5.3L31.4 35q-3 2.2-7.4 2.2c-5.7 0-10.6-3.9-12.3-9.1H4.4v5.7A22 22 0 0 0 24 46"/><path fill="#fbbc05" d="M11.7 28.2a13 13 0 0 1 0-8.4v-5.7H4.4a22 22 0 0 0 0 19.8l5.7-4.5z"/><path fill="#ea4335" d="M24 10.8a12 12 0 0 1 8.4 3.2l6.3-6.3a22 22 0 0 0-34.4 6.4l7.4 5.7c1.7-5.2 6.6-9 12.3-9"/></svg>