<svg xmlns="http://www.w3.org/2000/svg" width="48" height="48" fill="none" viewBox="0 0 48 48"><path fill="#0081fb" d="M7 28.7q0 2.4.8 3.7 1 1.5 2.5 1.4c1.2 0 2.3-.3 4.5-3.3 1.7-2.4 3.8-5.7 5.1-7.8l2.3-3.6c1.6-2.5 3.5-5.2 5.6-7a9 9 0 0 1 5.6-2.4c3.1 0 6.2 1.8 8.5 5.3q3.7 5.9 3.7 13.4 0 4.4-1.5 6.8a7 7 0 0 1-6 3.3v-4.7c2.7 0 3.4-2.4 3.4-5.2 0-4-1-8.4-3-11.6q-2.2-3.4-5.4-3.6-3.1.1-6 4.7-1.6 2.4-3.5 5.7l-1.3 2.5a61 61 0 0 1-4.8 7.8c-2.4 3.2-4.5 4.4-7.2 4.4A7 7 0 0 1 3.8 35q-1.5-2.7-1.5-6.5z"/><path fill="url(#a)" d="M6 15.3C8 12 11.2 9.7 14.8 9.7q3-.1 6.2 2.3c2.4 2 4.8 5 8 10.3l1 1.8c2.8 4.5 4.3 6.8 5.2 7.9q1.6 2 3 1.8c2.6 0 3.3-2.4 3.3-5.2l4.1-.2q0 4.4-1.5 6.8a7 7 0 0 1-6 3.3c-1.8 0-3.5-.4-5.4-2.2a31 31 0 0 1-4.5-6l-3.9-6.5q-3-5-4.8-6.8c-1-1.2-2.5-2.6-4.8-2.6q-2.8.2-4.7 3.3z"/><path fill="url(#b)" d="M14.7 14.4q-2.8.2-4.7 3.3c-1.9 2.8-3 7-3 11q0 2.4.8 3.7l-4 2.6q-1.5-2.7-1.5-6.5c0-4.6 1.3-9.5 3.7-13.2C8 12 11.2 9.7 14.8 9.7z"/><defs><linearGradient id="a" x1="11.5" x2="41.3" y1="27.3" y2="28.8" gradientUnits="userSpaceOnUse"><stop stop-color="#0064e1"/><stop offset=".4" stop-color="#0064e1"/><stop offset=".8" stop-color="#0073ee"/><stop offset="1" stop-color="#0082fb"/></linearGradient><linearGradient id="b" x1="9.1" x2="9.1" y1="30.6" y2="19.6" gradientUnits="userSpaceOnUse"><stop stop-color="#0082fb"/><stop offset="1" stop-color="#0064e0"/></linearGradient></defs></svg>