<svg xmlns="http://www.w3.org/2000/svg" width="48" height="48" fill="none" viewBox="0 0 48 48"><g clip-path="url(#a)"><mask id="b" width="48" height="48" x="0" y="0" maskUnits="userSpaceOnUse" style="mask-type:luminance"><path fill="#fff" d="M48 0H0v48h48z"/></mask><g mask="url(#b)"><path fill="#fff" d="M40 0H8a8 8 0 0 0-8 8v32a8 8 0 0 0 8 8h32a8 8 0 0 0 8-8V8a8 8 0 0 0-8-8"/><g clip-path="url(#c)"><path fill="#000" fill-rule="evenodd" d="m7.6 31.4 14.3 3.8v3l9 2.4a18 18 0 0 1-8.4 1.3h-1l-.1-.1h-.5l-.2-.1h-.3l-.2-.1h-.3l-.1-.1h-.3l-.1-.1h-.3l-.1-.1h-.3v-.1h-.2l-.1-.1h-.2L18 41h-.2l-.1-.1-.2-.1h-.1l-.2-.1h-.1l-.1-.1h-.1l-.1-.1h-.2l-.1-.2h-.3v-.1H16L16 40l-.2-.1-.2-.1-.2-.1-.2-.1-.1-.1-.1-.1h-.2l-.1-.2h-.2l-.1-.1-.1-.1H14L14 39l-.1-.1h-.1v-.1h-.2v-.2h-.2v-.1h-.2v-.2H13l-.1-.2h-.1l-.2-.2h-.1l-.1-.1v-.1h-.1l-.1-.1-.1-.1-.1-.1h-.1l-.1-.2h-.1V37l-.2-.2-.2-.1v-.1l-.2-.1v-.1H11l-.3-.3V36h-.2v-.2h-.2v-.2h-.1v-.2H10l-.1-.2-.1-.2a18 18 0 0 1-2.2-3.6M6 22.7l17 4.5-.6 3 16.2 4.4q-1.2 1.6-2.8 3L7 29.9v-.2l-.2-.3q0-.5-.3-1.1v-.5h-.1v-.4h-.1l-.1-.7V26l-.1-.1q-.1-1.5 0-3.2M8.4 15l18 4.8-1.6 2.8 17 4.5q-.4 1.8-1 3.5L23.5 26 6.2 21.4v-.6l.2-.7V20l.1-.2.1-.4V19l.1-.1v-.2l.1-.2v-.2l.1-.1q.7-1.8 1.5-3.3m6.7-6.6 17 4.5q-1.5 1.2-2.6 2.6l11.7 3.1q.6 2 .8 4L9.2 13.8v-.1l.1-.1.1-.1v-.1l.2-.1V13h.1l.1-.2h.1v-.2l.2-.1v-.1l.1-.1.1-.1.1-.1.1-.1.1-.1.1-.1.1-.1.1-.1v-.1l.2-.1.2-.3.2-.1V11l.2-.1q1.6-1.5 3.4-2.5m9-2.4h1.7l.1.1h.8l.3.1h.2l.2.1h.3l.2.1h.3v.1h.3l.2.1h.2l.1.1h.3l.1.1h.2l.1.1h.2l.1.1h.2l.1.1h.2l.2.2h.3v.1h.1l.2.1h.1l.2.2h.2l.1.1h.1l.2.1.1.1h.1v.1h.2l.1.1.2.1.2.1.1.1.2.1h.1l.1.2h.2V9h.1l.2.1.1.1.1.1.3.2.1.1h.1v.1l.2.1.1.1h.1v.1l.2.1.1.1.2.1 2.8 3-21.7-5.7h.2l.1-.1.2-.1.5-.2h.3V7h.2l.4-.2h.3l.2-.1.2-.1h.2l.2-.1h.3l.2-.1h.4l.1-.1h.4l.2-.1h.6L22 6h1.3l.2-.1h.4" clip-rule="evenodd"/></g></g></g><defs><clipPath id="a"><path fill="#fff" d="M0 0h48v48H0z"/></clipPath><clipPath id="c"><path fill="#fff" d="M6 6h36v36H6z"/></clipPath></defs></svg>