<svg xmlns="http://www.w3.org/2000/svg" width="48" height="48" fill="none" viewBox="0 0 48 48"><g clip-path="url(#a)"><mask id="b" width="48" height="48" x="0" y="0" maskUnits="userSpaceOnUse" style="mask-type:luminance"><path fill="#fff" d="M48 0H0v48h48z"/></mask><g mask="url(#b)"><path fill="#fff" d="M40 0H8a8 8 0 0 0-8 8v32a8 8 0 0 0 8 8h32a8 8 0 0 0 8-8V8a8 8 0 0 0-8-8"/><mask id="c" width="36" height="36" x="6" y="6" maskUnits="userSpaceOnUse" style="mask-type:luminance"><path fill="#fff" d="M42 6H6v36h36z"/></mask><g mask="url(#c)"><path fill="#000" d="M39.4 20.7a9 9 0 0 0-.8-7.3A9 9 0 0 0 29 9a9.1 9.1 0 0 0-15.4 3.3 9 9 0 0 0-6 4.3 9 9 0 0 0 1 10.7 9 9 0 0 0 .9 7.3A9 9 0 0 0 19 39a9 9 0 0 0 6.8 3 9 9 0 0 0 8.6-6.3 9 9 0 0 0 7.2-9.8 9 9 0 0 0-2.3-5.2M26 39.7q-2.5 0-4.3-1.6l.2-.1 7.2-4.2a1 1 0 0 0 .5-1V22.7l3 1.8h.1V33a7 7 0 0 1-6.7 6.7m-14.5-6.2q-1.2-2.1-.8-4.6l.2.2 7.2 4.1a1 1 0 0 0 1.2 0l8.7-5v3.5L20.6 36a6.7 6.7 0 0 1-9.2-2.4M9.5 17.8q1.2-2 3.6-3v8.6a1 1 0 0 0 .5 1l8.8 5-3 1.8a.1.1 0 0 1-.2 0L12 27a7 7 0 0 1-2.5-9.2m25 5.8-8.8-5 3-1.8L36 21A6.7 6.7 0 0 1 35 33v-8.5a1 1 0 0 0-.6-1m3-4.5-.3-.1-7.2-4.2a1 1 0 0 0-1.1 0l-8.8 5v-3.5l7.3-4.2a6.7 6.7 0 0 1 10 7m-19 6.2-3-1.8h-.1V15a6.7 6.7 0 0 1 11-5.2l-.2.2-7.1 4a1 1 0 0 0-.6 1.1zm1.6-3.6 4-2.2 3.8 2.2v4.5L24 28.5l-3.9-2.3z"/></g></g></g><defs><clipPath id="a"><path fill="#fff" d="M0 0h48v48H0z"/></clipPath></defs></svg>