<svg xmlns="http://www.w3.org/2000/svg" width="48" height="48" fill="none" viewBox="0 0 48 48"><g clip-path="url(#a)"><path fill="#fff" d="M40 0H8a8 8 0 0 0-8 8v32a8 8 0 0 0 8 8h32a8 8 0 0 0 8-8V8a8 8 0 0 0-8-8"/><path fill="url(#b)" d="m25.1 4.6 2.4 4h10.1q.5 0 .8.6l2.7 4.6q.5.8 0 1.5l-1.4 2.4-.6 1.2q-.4.4-.1 1l4.8 8.4q.4.7 0 1.4l-2.5 4.2q-.4.7-1.2.7l-4.4.1-5 8.6q-.3.8-1.2.7l-6-.1-.4-.4-2.4-4.2-.2-.1h-9.3q-.8 0-1.4-.2l-3-5a1 1 0 0 1 0-1l2.3-3.8v-.4l-3.5-6-1.4-2.5c-.3-.6-.3-.9.2-1.7L6.9 14q.3-.6 1-.6l5-.1 5-8.9a1 1 0 0 1 .8-.4h3l1.8-.1q1-.1 1.6.6m-6.2.8h-.1l-5.2 9.1-.3.2H8.1q-.1 0 0 .1l10.5 18.5-5.2.1-.3.2-2.4 4.2q-.1.3.1.2h10.4l.2.2 2.5 4.4q.1.3.3 0l9-16 1.5-2.4a.1.1 0 0 1 .2 0l2.6 4.6h5.2l-5.2-9.3v-.2l.5-1 2-3.5q0-.1 0-.1H19q-.2 0-.2-.2l2.6-4.5v-.2zm11.4 14.5q0 0 0 .1l-1.5 2.7-4.7 8.3H24l-6.4-11h12.7"/></g><defs><linearGradient id="b" x1="4" x2="44" y1="4" y2="4" gradientUnits="userSpaceOnUse"><stop stop-color="#00055f" stop-opacity=".8"/><stop offset="1" stop-color="#6f69f7" stop-opacity=".8"/></linearGradient><clipPath id="a"><path fill="#fff" d="M0 0h48v48H0z"/></clipPath></defs></svg>